<svg width="200" height="57" viewBox="0 0 200 57" fill="none" xmlns="http://www.w3.org/2000/svg">
<g clip-path="url(#clip0_74_3355)">
<path d="M73.5389 14.4297V19.633H59.5267V25.2948H72.4227V30.5352H59.5267V41.4536H52.7974V14.4297H73.5389Z" fill="#306BEA"/>
<path d="M77.8066 14.3945H83.6213V18.9796H77.8066V14.3945ZM77.8066 21.4388H83.6213V41.4555H77.8066V21.4388Z" fill="#306BEA"/>
<path d="M86.4878 21.4763H92.6915C95.1438 30.3546 95.5652 32.1724 96.2136 35.9932C97.0149 31.5541 97.1306 31.0585 98.3232 26.3508L99.5459 21.4531H105.594L99.1244 41.4327H92.9601L86.4878 21.4763Z" fill="#306BEA"/>
<path d="M127.047 36.3576C126.369 37.4483 125.558 38.4533 124.632 39.3448C122.569 41.2113 119.873 42.2255 117.092 42.1792C111.155 42.1792 106.984 38.3584 106.984 31.8421C106.984 27.0208 109.36 20.8172 117.245 20.8172C119.938 20.7338 122.545 21.7735 124.442 23.6909C127.047 26.4882 127.2 30.3901 127.276 32.6456H113.005C112.968 35.1373 114.38 37.6197 117.59 37.6197C120.799 37.6197 121.913 35.5101 122.64 34.0975L127.047 36.3576ZM121.186 28.9706C121.138 27.9309 120.748 26.9352 120.079 26.1363C119.299 25.4114 118.271 25.0155 117.206 25.0294C116.071 25.0247 114.989 25.4971 114.218 26.3285C113.581 27.081 113.172 27.9957 113.035 28.9729H121.186V28.9706Z" fill="#306BEA"/>
<path d="M132.118 15.6914H137.979V21.9321H141.844V25.5307H137.94V34.5225C137.94 35.7451 137.94 36.815 139.468 36.815L141.578 36.7386V41.3236C140.554 41.5112 139.517 41.613 138.477 41.6293C136.444 41.6293 134.23 41.5158 132.968 39.6725C132.167 38.4892 132.128 37.0674 132.128 35.157V25.4913H129.215V21.8881H132.125L132.118 15.6914Z" fill="#306BEA"/>
<path d="M151.596 23.5386C152.895 22.4317 154.317 21.5518 157.371 21.2461V26.4726L155.423 26.7782C152.589 27.2738 151.748 27.6952 151.748 30.224V41.455H145.887V21.4383H151.626L151.596 23.5386Z" fill="#306BEA"/>
<path d="M160.46 27.1381C160.435 25.4107 161.215 23.7712 162.57 22.699C164.404 21.2471 166.78 20.9414 169.116 20.9414C171.568 20.9414 177.52 21.5134 177.52 26.6796V38.3159C177.52 40.4625 177.633 40.7682 178.092 41.456H172.316V39.615C170.788 40.7219 169.139 41.9909 166.205 41.9909C161.62 41.9909 159.659 38.698 159.659 35.8798C159.659 32.6633 162.227 30.8293 163.869 30.1416C165.511 29.4538 169.262 28.7661 171.754 28.3076V27.2377C171.677 26.3207 171.601 24.7854 169.461 24.7854C166.856 24.7854 166.511 26.3902 166.36 27.1243L160.46 27.1381ZM167.924 33.152C166.93 33.534 165.395 34.106 165.395 35.6436C165.457 36.82 166.458 37.7254 167.634 37.6675C168.359 37.6467 169.063 37.4221 169.667 37.0191C171.615 35.7965 171.691 33.9624 171.737 31.8922L167.924 33.152Z" fill="#306BEA"/>
<path d="M188.167 23.2726C188.706 22.608 189.387 22.0731 190.161 21.7072C191.312 21.2209 192.548 20.9616 193.796 20.943C195.031 20.9176 196.253 21.1931 197.355 21.7442C199.465 22.8511 200 24.655 200 27.758V41.4576H194.148V30.2034C194.148 28.4088 194.111 27.7511 193.882 27.2162C193.405 26.2065 192.351 25.5975 191.237 25.6878C188.137 25.6878 188.137 28.1795 188.137 30.6619V41.4576H182.262V21.515H188.199L188.167 23.2726Z" fill="#306BEA"/>
<path d="M27.6235 28.2904H33.2043C33.6489 28.2997 34.0194 27.9454 34.0287 27.5008C34.031 27.3873 34.0101 27.2738 33.9661 27.1696L24.363 1.03262C24.2473 0.71306 23.9439 0.497703 23.6035 0.500018H18.0019C17.5573 0.497703 17.1937 0.856632 17.1914 1.30356C17.1914 1.40081 17.2076 1.49576 17.2424 1.58607L26.8431 27.7578C26.9612 28.0843 27.2762 28.2997 27.6235 28.2904Z" fill="#306BEA"/>
<path d="M26.6162 56.0761H32.197C32.6416 56.0785 33.0051 55.7195 33.0075 55.2726C33.0075 55.1753 32.9913 55.0804 32.9565 54.9901L13.1552 1.03262C13.0394 0.713053 12.7361 0.500011 12.3933 0.500011H6.81952C6.37491 0.497695 6.01135 0.856625 6.00903 1.30355C6.00903 1.40081 6.02524 1.49575 6.05998 1.58606L25.8567 55.5482C25.9748 55.8654 26.2781 56.0761 26.6162 56.0761Z" fill="#306BEA"/>
<path d="M15.6287 56.0756H21.2095C21.6541 56.0964 22.0315 55.7514 22.0524 55.3067C22.057 55.1979 22.0408 55.0914 22.0037 54.9895L12.3682 28.8178C12.2524 28.4982 11.9491 28.2829 11.6087 28.2852H6.00013C5.55553 28.2968 5.20354 28.6673 5.21512 29.1119C5.21744 29.2022 5.23596 29.2925 5.26838 29.3782L14.8692 55.5499C14.9873 55.8648 15.2906 56.0756 15.6287 56.0756Z" fill="#306BEA"/>
<path d="M28.2976 1.59302L32.7993 13.836C32.9151 14.1555 33.2184 14.3709 33.5589 14.3686H39.1396C39.5842 14.3709 39.9478 14.012 39.9501 13.565C39.9501 13.4678 39.9339 13.3728 39.8992 13.2825L35.3975 1.03262C35.2817 0.71306 34.9784 0.497703 34.638 0.500018H29.0572C28.6126 0.497703 28.2467 0.854316 28.2444 1.30124C28.2444 1.40081 28.2606 1.50039 28.2976 1.59302Z" fill="#306BEA"/>
<path d="M5.33299 56.0776H10.9138C11.3584 56.08 11.7219 55.721 11.7243 55.2741C11.7243 55.1768 11.708 55.0819 11.6733 54.9916L7.14617 42.7162C7.03038 42.3967 6.72703 42.1813 6.38662 42.1836H0.812801C0.368192 42.1813 0.00231567 42.5379 0 42.9848C0 43.0844 0.0162097 43.184 0.0532605 43.2766L4.55493 55.552C4.67303 55.8739 4.98796 56.0869 5.33299 56.0776Z" fill="#306BEA"/>
</g>
<defs>
<clipPath id="clip0_74_3355">
<rect width="200" height="56" fill="white" transform="translate(0 0.5)"/>
</clipPath>
</defs>
</svg>
